<?xml version="1.0" encoding="utf-8"?>
<!-- Generator: Adobe Illustrator 19.0.0, SVG Export Plug-In . SVG Version: 6.00 Build 0)  -->
<svg version="1.1" id="Слой_1" xmlns="http://www.w3.org/2000/svg" xmlns:xlink="http://www.w3.org/1999/xlink" x="0px" y="0px"
	 viewBox="0 0 84 37.5" style="enable-background:new 0 0 84 37.5;" xml:space="preserve">
<style type="text/css">
	.st0{fill:#ED1C24;}
	.st1{fill:none;}
</style>
<path id="XMLID_23_" d="M32.4,29.3c0.1-0.1,0.1-0.2,0.1-0.4c-0.3-1.7-0.3-3.5-0.4-5.4c-0.1-2.3-0.1-4.7-0.7-7
	c-0.1-0.4-0.3-0.6-0.7-0.8c-0.4-0.1-0.9,0-1.2,0.3c0,0-0.1,0.1-0.1,0.1c-0.1,0.2-0.3,0.5-0.4,0.9c0,0,0,0.1,0,0.1
	c-0.2,1.8-0.4,4-1.6,5.5c0,0,0,0,0,0.1c-0.1,0.1-0.2,0.2-0.3,0.4c-0.1,0.1-0.2,0.3-0.3,0.4c-0.8,1.2-1.6,2.4-2.6,3.5
	c0-0.1,0-0.1,0.1-0.2c0,0,0.5-2.3,0.5-2.3c0.6-2.6,1.3-5.3,1.4-7.8c0-0.2-0.1-0.4-0.2-0.5c-0.4-0.3-0.9-0.4-1.3-0.3
	c-0.5,0.1-0.9,0.4-1.1,0.9c-0.7,1.3-1.1,3.1-1.5,4.7c-0.1,0.4-0.2,0.9-0.3,1.3c0,0,0,0,0,0c-0.3,1-0.4,2-0.5,3
	c-0.1,0.6-0.1,1.1-0.2,1.7c-0.2,1.1-0.1,2,0.1,3.1c0,0,0,0,0,0c0.1,0.2,0.2,0.4,0.5,0.5c0.4,0.2,0.7,0,0.9,0c0,0,0.1,0,0.1,0
	c1.5-1,2.6-1.9,3.5-3c0.1-0.1,0.1-0.3,0.1-0.4c0.2-0.3,0.4-0.5,0.7-0.8c0.7-0.8,1.4-1.6,2-2.6c0,0.2,0,0.5,0.1,0.7
	c0.2,2.4,0.4,5.1,2.5,7.1c0.2,0.2,0.4,0.2,0.6,0.1c0.2-0.1,0.4-0.3,0.4-0.5c0.1-0.4,0-0.8-0.1-1.2C32.3,30,32.2,29.6,32.4,29.3z"/>
<path id="XMLID_21_" d="M48.9,32.3c-0.1-0.2-0.2-0.3-0.3-0.4c-0.7-0.4-1.5-0.6-2.2-0.9c-0.8-0.3-1.6-0.6-2.3-1
	c-0.6-0.3-1.1-0.6-1.7-0.9c-0.5-0.3-1.1-0.6-1.6-0.9c-0.1-0.1-0.4-0.3-0.6-0.3c-0.1-0.1-0.3-0.2-0.5-0.2c-0.4-0.1-0.8-0.3-1.2-0.4
	c0.1-0.1,0.2-0.2,0.4-0.2c0.3-0.2,0.7-0.4,1-0.7c0,0,0,0,0,0c0.1-0.1,0.2-0.2,0.4-0.3c0.2-0.2,0.5-0.4,0.7-0.6c0,0,0,0,0,0
	c0.1-0.1,0.2-0.3,0.2-0.4v0c0.2-0.2,0.4-0.4,0.6-0.6c0.1-0.1,0.3-0.3,0.4-0.4c0.3-0.2,0.6-0.4,0.7-0.7c0.4-0.5,0.7-0.9,1.1-1.4
	c0.9-1.1,1.8-2.2,2.5-3.6c0.1-0.2,0.1-0.4,0-0.6c-0.1-0.2-0.3-0.3-0.6-0.3c-0.3,0-0.6,0-0.8,0.1c-0.6,0.1-1.2,0.1-1.9,0.1
	c-0.4,0-0.9-0.1-1.3-0.1c-0.2,0-0.4,0-0.6-0.1c-0.3-0.1-0.6-0.1-0.9-0.2c-0.8-0.2-1.7-0.4-2.6-0.4c-0.2,0-0.3,0.1-0.5,0.2
	c-0.1,0.1-0.2,0.3-0.2,0.5c0,0.2,0,0.5,0.2,0.7c0.3,0.4,0.6,0.5,0.8,0.5c0,0,0.1,0,0.1,0c0,0,0,0,0,0c0.6,0.3,1.2,0.4,1.7,0.4
	c0.3,0,0.6,0.1,0.9,0.2c0.1,0,0.1,0,0.2,0c-0.1,0-0.1,0-0.1,0c0.1,0,0.3,0.1,0.5,0c0.2,0,0.3,0.1,0.4,0.1c0.1,0,0.2,0,0.3,0
	c0,0,0.1,0,0.1,0c0.3,0.1,0.6,0,0.8,0c-0.5,0.6-1,1.1-1.4,1.7c-2,2.4-4,4.8-6.6,5.6c-0.2,0.1-0.3,0.2-0.4,0.3c0,0.1-0.1,0.2-0.1,0.3
	c0,0.1-0.1,0.2-0.1,0.3c0,0.6,0.2,1,0.4,1.5c0.2,0.3,0.6,0.4,0.9,0.2c0.2-0.1,0.3-0.1,0.3-0.1c0.3,0.2,0.7,0.3,1,0.4
	c0.4,0.1,0.8,0.2,1,0.6c0.1,0.1,0.2,0.2,0.3,0.2c0.7,0.2,1.4,0.6,2.1,1c0.7,0.4,1.4,0.8,2.2,1.1c0.1,0.1,0.2,0.2,0.4,0.3
	c0.4,0.1,0.8,0.2,1.2,0.3c0.2,0.1,0.5,0.1,0.7,0.2c0.2,0.1,0.4,0.1,0.6,0c0,0,0,0,0.1,0c0.3,0.1,0.6,0.1,0.8,0c0.1,0,0.2,0,0.3,0
	c0,0,0,0,0,0c0.1,0.1,0.3,0.2,0.6,0.1c0.1,0,0.1,0,0.2,0c0,0,0,0,0.1,0c0.2,0,0.9,0.2,1.3-0.5C49,32.7,49,32.5,48.9,32.3z"/>
<path id="XMLID_19_" d="M25.3,34.9c-0.1-0.2-0.2-0.3-0.3-0.4c-1.2-0.6-2.5-1.1-3.7-1.5c-1.3-0.5-2.7-1-4-1.6
	c-0.9-0.6-1.9-1.1-2.9-1.6c-0.9-0.5-1.9-1-2.8-1.5c-0.2-0.2-0.6-0.5-1-0.5c-0.3-0.3-0.6-0.3-0.8-0.3c0,0,0,0,0,0c0,0,0,0,0,0
	c-0.9-0.3-1.9-0.8-2.9-0.9c0.5-0.4,0.9-0.7,1.4-1c0.5-0.4,1.1-0.7,1.7-1.2c0,0,0,0,0,0c0.2-0.2,0.4-0.4,0.6-0.5
	c0.4-0.4,0.8-0.7,1.2-1.1c0,0,0,0,0,0c0.2-0.2,0.3-0.4,0.3-0.5c0,0,0,0,0,0c0,0,0,0,0,0c0.3-0.4,0.7-0.7,1.1-1.1
	c0.3-0.2,0.5-0.4,0.8-0.7c0.4-0.3,0.9-0.7,1.2-1c0.6-0.8,1.3-1.6,1.9-2.3c1.5-1.8,3-3.7,4.2-6c0.1-0.2,0.1-0.4,0-0.6
	c-0.1-0.2-0.3-0.3-0.6-0.3c-0.5,0-0.9,0.1-1.4,0.1c-1,0.1-2.1,0.2-3.2,0.2c-0.7,0-1.5-0.1-2.3-0.2c-0.3,0-0.7-0.1-1-0.1
	c-0.5-0.1-1-0.3-1.6-0.4C9.8,9.3,8.4,9,6.9,9C6.8,9,6.6,9,6.5,9.2C6.4,9.3,6.3,9.4,6.3,9.6c0,0.3,0,0.6,0.3,0.9
	c0.4,0.6,0.9,0.7,1.2,0.8c0.1,0,0.2,0,0.2,0.1c0.9,0.5,1.9,0.6,2.8,0.7c0.6,0.1,1.1,0.1,1.6,0.3c0.1,0,0.1,0,0.2,0c0,0-0.1,0-0.1,0
	c0,0,0,0,0,0c0.1,0,0.4,0.1,0.7,0c0.3,0.1,0.6,0.1,0.8,0.1c0.2,0,0.4,0,0.5,0.1c0,0,0.1,0,0.1,0c0.6,0.1,1.1,0,1.5-0.1
	c0.3-0.1,0.6-0.1,0.8-0.1c-1.1,1.2-2.2,2.5-3.2,3.7c-3.4,4.1-6.9,8.2-11.4,9.6c-0.2,0.1-0.3,0.2-0.4,0.3c-0.1,0.1-0.1,0.3,0,0.4
	c-0.1,0.1-0.1,0.3-0.1,0.4c0,0.9,0.2,1.6,0.7,2.2c0.2,0.3,0.6,0.4,0.9,0.2c0.2-0.1,0.6-0.4,0.9-0.2c0.5,0.3,1.1,0.5,1.5,0.6
	c0.7,0.2,1.4,0.4,1.9,1.1c0.1,0.1,0.2,0.2,0.3,0.2c1.3,0.3,2.5,1,3.7,1.7c1.2,0.7,2.4,1.4,3.9,1.8c0.1,0.2,0.3,0.4,0.6,0.5
	c0.7,0.2,1.3,0.4,1.9,0.5c0.4,0.1,0.8,0.2,1.2,0.3c0.2,0.1,0.5,0.1,0.7,0.1c0.1,0,0.1-0.1,0.2-0.1c0.5,0.2,0.9,0.1,1.3,0.1
	c0.4,0,0.6,0,0.7,0.1c0,0,0,0,0,0c0.1,0.1,0.3,0.2,0.7,0.1c0.1,0,0.2,0,0.3,0c0.1,0,0.1,0,0.2,0c0.4,0.1,1.2,0.3,1.7-0.6
	C25.3,35.3,25.3,35.1,25.3,34.9z"/>
<path id="XMLID_17_" d="M66.3,16.5c-0.2-0.2-0.5-0.3-0.8-0.3c-0.5,0.1-1,0.4-1.3,0.9c-0.2,0.4-0.4,1-0.7,1.8
	c-0.1,0.4-0.3,0.8-0.4,1.2c-0.1,0.4-0.3,0.7-0.5,1.1c-0.3,0.7-0.7,1.4-0.8,2.2c0,0.2-0.1,0.4-0.3,0.6c0,0,0,0,0,0l-0.2,0.5
	c-0.3,0.6-0.5,1.1-0.9,1.6c-0.1-0.7-0.3-1.3-0.4-1.9c-0.4-1.8-0.7-3.7-1.5-5.6c-0.2-0.5-0.9-0.9-1.5-0.8c-0.4,0.1-0.7,0.5-0.7,1
	c0,0,0-0.1,0-0.1c-0.1,1.3-0.7,2.5-1.2,3.7c-0.5,1-0.9,2-1.2,3.2c-0.1,0.1-0.2,0.1-0.3,0.2c-0.1,0.1-0.2,0.3-0.2,0.5
	c0,0,0,0-0.1,0.1c-0.2,0.3-0.5,0.6-0.7,1c0.3-2.3,0.3-4.5,0.3-6.7l0-2.4c0-0.2-0.1-0.3-0.2-0.4c0,0,0-0.1,0-0.2c0-0.3-0.1-1-0.9-1.1
	c0,0,0,0,0,0c-0.8-0.1-1.6,0.5-1.7,1.3c-0.3,1.9-0.3,3.6-0.4,5.3c0,0.6-0.1,1.2-0.1,1.9c-0.2,1.9-0.4,3.9,0.8,5.8
	c0.1,0.1,0.2,0.3,0.3,0.3c0.2,0.1,0.6,0.1,0.8-0.1c0.8-0.4,1.2-1,1.7-1.6c0.2-0.2,0.4-0.4,0.5-0.6c0,0,0.1-0.1,0.1-0.1c0,0,0,0,0,0
	c0,0,0,0,0,0c0.1-0.1,0.2-0.2,0.3-0.4c0.1-0.1,0.2-0.2,0.3-0.3c0-0.1,0.1-0.1,0.1-0.2c0-0.1,0.1-0.2,0.2-0.3
	c0.1-0.1,0.1-0.2,0.2-0.3c0,0,0,0,0-0.1c0.2-0.6,0.5-1.2,0.7-1.8c0.3-0.7,0.6-1.4,0.8-2.1c0.2,2.1,0.5,4.6,1.4,7.1
	c0.1,0.4,0.5,0.7,0.9,0.7c0.5,0.1,1.1-0.1,1.4-0.5c0.1-0.1,0.2-0.3,0.3-0.6c0.1-0.2,0.2-0.4,0.2-0.5c0,0,0,0,0-0.1c0,0,0,0,0,0.1
	c0-0.1,0-0.1,0.1-0.2c0.2-0.8,0.7-1.6,1.2-2.3c0.3-0.5,0.7-1.1,1-1.7c0,0,0,0,0,0c0.1-0.2,0.1-0.4,0.1-0.5c0.1-0.1,0.2-0.2,0.2-0.3
	c0,0,0-0.1,0.1-0.1c0.1-0.5,0.3-0.9,0.5-1.4c0.1-0.2,0.2-0.4,0.2-0.6c0.1-0.3,0.3-0.6,0.4-0.8c0.2-0.5,0.4-1,0.7-1.4
	c0.2-0.2,0.4-0.5,0.6-0.9c0,0,0.1,0,0.1-0.1c0.1-0.1,0.2-0.2,0.3-0.3c0,0,0,0,0-0.1c0,0,0.2-0.4,0.4-0.9
	C66.9,17.3,66.7,16.9,66.3,16.5z"/>
<path id="XMLID_15_" d="M72.7,16.5c-0.1-0.2-0.2-0.4-0.5-0.5c-0.6-0.1-1.2,0-1.6,0.3c-0.4,0.3-0.7,0.7-0.8,1.2c0,0,0,0,0,0
	c-0.3,3-0.2,6.1,0,9c0.1,1.2,0.1,2.5,0.2,3.8c0,0.3,0.1,0.5,0.2,0.7c0.1,0.1,0.1,0.3,0.1,0.4c0,0.3,0.3,0.6,0.6,0.6h0.4
	c0.3,0,0.6-0.3,0.6-0.6c0.1-1.7,0.3-3.4,0.8-5.5c0,0,0,0.1,0,0.1c0.1-0.2,0.1-0.4-0.1-0.7c0.1-0.4,0.1-0.9,0.1-1.2
	c0-0.4,0-0.8,0.1-1.1c0.1-0.2,0.1-0.4,0-0.6c0.1-0.3,0.1-0.6,0.1-0.8c0-0.2,0-0.4,0.1-0.6c0,0,0,0,0-0.1
	C73.3,19.2,73,17.7,72.7,16.5z"/>
<path id="XMLID_3_" d="M80.5,7.1C80.5,7.1,80.5,7.1,80.5,7.1c-0.5-0.1-1,0.2-1.2,0.8c0,0,0,0,0,0.1c-0.4,1-0.6,1.9-0.8,2.9
	c0,0,0,0,0,0c-0.1,0.8-0.2,1.6-0.3,2.4c-0.1,0.8-0.2,1.5-0.3,2.3c-0.2,1.5-0.3,2.9-0.3,4.4c0,0,0,1,0,1c-0.2,2.6-0.1,5.2,0.3,8.1
	c0.1,0.9,0.3,1.9,1.4,2.7c0.2,0.1,0.4,0.1,0.6,0c0.2-0.1,0.3-0.3,0.3-0.5c0-0.2,0-0.4,0-0.6c0-0.5,0-0.9,0.2-1.2
	c0.1-0.1,0.1-0.2,0.1-0.3c0.2-4.1,0.3-8.3,0.4-12.4l0.2-8c0,0,0-0.1,0-0.1C81.5,7.6,81,7.3,80.5,7.1z"/>
<g id="XMLID_11_">
	<path id="XMLID_12_" class="st0" d="M75.5,1.7c0-0.2,0-0.3-0.1-0.5c0,0-0.1-0.1-0.1-0.1L75.2,1l-0.1-0.1c-0.2-0.2-0.4-0.2-0.6-0.1
		c-0.2,0.1-0.4,0.2-0.4,0.4L74,1.5c-0.2,0.9-0.6,2.5-1.2,2.9c-0.1,0.1-0.2,0.2-0.2,0.3l-0.3,0.7c-0.5,1.1-1,2.3-1.5,3.2
		c0-0.1-0.1-0.1-0.1-0.2c-0.8-1-1.5-1.8-2.6-2.7c0,0,0,0-0.1,0c-0.2-0.1-0.4-0.2-0.6-0.1C67.1,5.6,67,5.9,66.9,6c0,0,0,0,0,0
		c0,0.1-0.1,0.2-0.1,0.3c0,0.6,0.4,1,0.6,1.2L67.8,8c0.2,0.3,0.3,0.4,0.7,0.9c0,0,0,0,0,0c0.3,0.3,0.5,0.6,0.8,0.9
		c0.4,0.5,0.9,1.1,1.4,1.5c0,0,0,0,0,0c0.1,0.1,0.4,0.4,0.8,0.4c0.1,0,0.1,0,0.2,0c0.4-0.1,0.5-0.5,0.6-0.7c0,0,0,0,0,0
		c0.2-0.2,0.5-0.4,0.6-0.8c0,0,0-0.1,0-0.1c0-0.1,0-0.1,0-0.2c0-0.1,0-0.2,0.1-0.2c0.2-0.2,0.3-0.4,0.3-0.6c0-0.2,0.1-0.3,0.2-0.5
		c0.1-0.2,0.2-0.4,0.3-0.7c0-0.2,0.2-0.6,0.3-0.9c0.1-0.4,0.2-0.8,0.3-1c0,0,0-0.1,0-0.1c0-0.1,0.1-0.2,0.1-0.3c0,0,0,0,0,0
		c0,0,0-0.1,0.1-0.1c0.1-0.1,0.2-0.4,0.3-0.7c0-0.3,0.2-0.8,0.4-1.2c0.2-0.5,0.4-0.9,0.4-1.3C75.6,2.1,75.6,1.9,75.5,1.7z"/>
</g>
<rect id="XMLID_1_" x="0.3" y="0" class="st1" width="82.5" height="51.1"/>
</svg>
