<svg id="Layer_1" data-name="Layer 1" xmlns="http://www.w3.org/2000/svg" viewBox="0 0 66.99 67"><defs><style>.cls-1{fill:#fff;}</style></defs><title>svgs</title><path class="cls-1" d="M27.69,40.39L42,33.05l-14.3-7.38V40.39ZM33.5,0A33.5,33.5,0,1,0,67,33.5,33.5,33.5,0,0,0,33.5,0ZM55.21,44a5.66,5.66,0,0,1-4.86,4.37A152.77,152.77,0,0,1,33.5,49a152.84,152.84,0,0,1-16.85-.62A5.66,5.66,0,0,1,11.79,44,47,47,0,0,1,11,33.48,47.05,47.05,0,0,1,11.8,23a5.66,5.66,0,0,1,4.86-4.37A152.59,152.59,0,0,1,33.51,18a152.5,152.5,0,0,1,16.84.62A5.66,5.66,0,0,1,55.21,23,47.14,47.14,0,0,1,56,33.48,47,47,0,0,1,55.21,44Z"/></svg>