<?xml version="1.0" encoding="utf-8"?>
<!-- Generator: Adobe Illustrator 19.0.0, SVG Export Plug-In . SVG Version: 6.00 Build 0)  -->
<svg version="1.1" id="Layer_1" xmlns="http://www.w3.org/2000/svg" xmlns:xlink="http://www.w3.org/1999/xlink" x="0px" y="0px"
	 viewBox="-264 387.9 67 67" style="enable-background:new -264 387.9 67 67;" xml:space="preserve">
<style type="text/css">
	.st0{fill:#FFFFFF;}
	.st1{fill:#DBBA9B;}
</style>
<title>svgs</title>
<circle class="st0" cx="-230.5" cy="421.4" r="33.5"/>
<path class="st1" d="M-208.8,431.9c-0.5,2.3-2.5,4.1-4.9,4.4c-5.6,0.5-11.2,0.7-16.9,0.6c-5.6,0.1-11.2-0.1-16.9-0.6
	c-2.4-0.3-4.3-2-4.9-4.4c-0.7-3.5-0.9-7-0.8-10.5c-0.1-3.5,0.1-7,0.8-10.5c0.5-2.3,2.5-4.1,4.9-4.4c5.6-0.5,11.2-0.7,16.8-0.6
	c5.6-0.1,11.2,0.1,16.8,0.6c2.4,0.3,4.3,2,4.9,4.4c0.7,3.5,0.9,7,0.8,10.5C-207.9,424.9-208.1,428.4-208.8,431.9z"/>
<polygon class="st0" points="-236.3,428.3 -222,420.9 -236.3,413.6 -236.3,428.3 "/>
</svg>
