<?xml version="1.0" encoding="utf-8"?>
<!-- Generator: Adobe Illustrator 19.0.0, SVG Export Plug-In . SVG Version: 6.00 Build 0)  -->
<svg version="1.1" id="Layer_1" xmlns="http://www.w3.org/2000/svg" xmlns:xlink="http://www.w3.org/1999/xlink" x="0px" y="0px"
	 viewBox="-263 387 68.9 68.9" style="enable-background:new -263 387 68.9 68.9;" xml:space="preserve">
<style type="text/css">
	.st0{fill:#FFFFFF;}
	.st1{fill:#DBBA9B;}
</style>
<title>svgs</title>
<path class="st0" d="M-228.5,387c-19,0-34.5,15.4-34.5,34.5s15.4,34.5,34.5,34.5s34.5-15.4,34.5-34.5l0,0
	C-194.1,402.4-209.5,387-228.5,387z"/>
<path class="st1" d="M-220,422.6h-5.6v20h-8.3v-20h-3.9v-7.1h3.9V411c0-3.3,1.6-8.4,8.4-8.4h6.2v6.9h-4.5c-0.9,0-1.7,0.7-1.8,1.6
	c0,0.1,0,0.2,0,0.3v4.1h6.3L-220,422.6z"/>
</svg>
