<svg id="Layer_1" data-name="Layer 1" xmlns="http://www.w3.org/2000/svg" viewBox="0 0 242 90"><defs><style>.cls-1{fill:#dbb89b;}.cls-2{fill:#eee5e0;}</style></defs><title>svgs</title><path class="cls-1" d="M9,56c0-1.85,1.86-2.59,3.53-2.59,4,0,7.35,2.91,7.35,2.91l3.44-6.6S19.77,46,12.61,46C6,46,.84,50,0.84,56.08c0,10.16,15,10,15,13.95,0,2-1.81,2.63-3.49,2.63-4.19,0-8-3.42-8-3.42L0.1,75.39A17.21,17.21,0,0,0,12.24,80.1C19.72,80.1,24,75.34,24,69.85,24,59.41,9,60.15,9,56Zm31.4-.79c-7.49,0-13.53,5-13.53,12.52s6,12.38,13.58,12.38S54,75.16,54,67.72,48,55.21,40.38,55.21Zm0,18.24A5.4,5.4,0,0,1,35,67.72c0-3.6,2.51-5.87,5.44-5.87s5.44,2.27,5.44,5.87A5.4,5.4,0,0,1,40.42,73.45ZM70,55.21c-7.49,0-13.53,5-13.53,12.52S62.47,80.1,70,80.1s13.58-4.94,13.58-12.38S77.54,55.21,70,55.21Zm0,18.24a5.4,5.4,0,0,1-5.44-5.73c0-3.6,2.51-5.87,5.44-5.87s5.44,2.27,5.44,5.87A5.4,5.4,0,0,1,70,73.45ZM94.1,62.83c0-.83,1.16-1.15,2.37-1.15a9.6,9.6,0,0,1,5.67,1.94l2.74-5.68s-2.84-2.73-8.42-2.73S86.61,58,86.61,62.46c0,7.76,11.21,8,11.21,10.07,0,0.78-1.16,1.11-2.37,1.11a10.11,10.11,0,0,1-6.09-2.4l-3.44,5.36a14.47,14.47,0,0,0,9.58,3.51c6.19,0,9.81-3.47,9.81-7.53C105.31,64.9,94.1,64.63,94.1,62.83Zm57.49-1.29H139.49V47.29h-8.14v33h8.14V68.41h12.09V80.3h8.14v-33h-8.14V61.53ZM176.28,56a18.2,18.2,0,0,0-10,3.09L169,64.69s3.44-2.26,6.46-2.26c2,0,3.54.65,3.54,2.63v0.42H178.7c-3.72,0-13.91.78-13.91,7.71,0,4.71,3.67,7.67,8.14,7.67,5,0,6.79-3.47,6.79-3.47h0.09a12.5,12.5,0,0,0-.09,1.48V80.3h7.35V65.67C187.07,59.62,183,56,176.28,56Zm2.84,14.59c0,1.94-1.86,4.2-4,4.2-1.58,0-2.28-.88-2.28-2,0-2,2.93-2.72,5.49-2.72h0.74v0.51ZM202.33,56a18.19,18.19,0,0,0-10,3.09l2.79,5.63s3.44-2.26,6.46-2.26c2,0,3.53.65,3.53,2.63v0.42h-0.33c-3.72,0-13.91.78-13.91,7.71,0,4.71,3.67,7.67,8.14,7.67,5,0,6.79-3.47,6.79-3.47h0.09a12.72,12.72,0,0,0-.09,1.48V80.3h7.35V65.67C213.12,59.62,209.08,56,202.33,56Zm2.84,14.59c0,1.94-1.86,4.2-4,4.2-1.58,0-2.28-.88-2.28-2,0-2,2.93-2.72,5.49-2.72h0.74v0.51Zm29.3-14v1.2a3.87,3.87,0,0,0,0,.55h-0.14A9.12,9.12,0,0,0,227.87,56c-7.26,0-10.74,5.63-10.74,11.68s3.58,12,10.79,12a7.14,7.14,0,0,0,6-2.49H234s0,0.6,0,.88v0.79c0,3.51-2.65,4.57-5.53,4.57a16.33,16.33,0,0,1-6.74-1.53l-2.28,6A21.31,21.31,0,0,0,228.47,90C235,90,242,86.82,242,78.13V56.52h-7.53ZM229.82,73c-3.21,0-4.6-2.63-4.6-5.59,0-2.72,1.44-4.76,4.28-4.76,2.42,0,4.65.93,4.65,5.13S231.91,73,229.82,73ZM75.43,52.07l4.82-8.89H72.38L67.57,52l0.06,0h7.8Zm36.45,16.67H125V61.86H111.87v6.88Z"/><path class="cls-2" d="M0,0H8.11V12.71h3.34L18.3,0H27L18.07,15.75v0.09l9.45,17.09H18.44l-7-13.36H8.11V32.94H0V0Z"/><path class="cls-2" d="M30.82,0h8V23.13c0,2.26.42,3,2.22,3,0.51,0,1,0,1,0V33a21.92,21.92,0,0,1-2.41.14c-4.26,0-8.8-1-8.8-9V0Z"/><path class="cls-2" d="M58.15,18.15h0.33V17.73c0-2-1.53-2.62-3.52-2.62-3,0-6.44,2.26-6.44,2.26l-2.78-5.62a18.09,18.09,0,0,1,10-3.09c6.72,0,10.75,3.64,10.75,9.68v14.6H59.17V31.51A12.65,12.65,0,0,1,59.26,30H59.17s-1.76,3.45-6.76,3.45c-4.45,0-8.11-2.95-8.11-7.65C44.3,18.93,54.45,18.15,58.15,18.15Zm-3.52,9.26c2.08,0,3.94-2.26,3.94-4.19V22.71H57.83c-2.55,0-5.47.74-5.47,2.72C52.36,26.54,53.06,27.41,54.63,27.41Z"/><path class="cls-2" d="M68.81,9.21h8.43L81,21.84a40.31,40.31,0,0,1,.88,4.1h0.09s0.42-2.54.88-4.1L86.47,9.21h8.48L86.84,32.94H77.06Z"/><path class="cls-2" d="M97.91,9.21h8V32.94h-8V9.21ZM98,0h7.83V6.22H98V0Z"/><path class="cls-2" d="M122.57,8.66c7,0,11,4.88,11,11.47,0,0.78-.19,2.49-0.19,2.49H118.35a5.32,5.32,0,0,0,5.56,4.24,12.55,12.55,0,0,0,6.58-2.4l3,5.57a16.17,16.17,0,0,1-10.19,3.45c-8.52,0-13.11-6.12-13.11-12.44C110.15,14.1,114.88,8.66,122.57,8.66Zm3,9.4a3.24,3.24,0,0,0-3.15-3.41c-2.32,0-3.43,1.66-3.85,3.41h7Z"/><path class="cls-2" d="M138,9.21h7.69v4a12.43,12.43,0,0,1-.09,1.47h0.09a8.27,8.27,0,0,1,7.6-5.9,5.61,5.61,0,0,1,.93.09v7.83a8.58,8.58,0,0,0-1.62-.14,6,6,0,0,0-6.16,4.15A10.74,10.74,0,0,0,146,24v9h-8V9.21Z"/><path class="cls-2" d="M167.14,8.66c4.82,0,6.25,1.89,6.25,1.89h0.09s0-.46,0-1.06V0h8V32.94H174V31.37c0-.74,0-1.34,0-1.34h-0.09a8,8,0,0,1-6.9,3.45c-6.49,0-10.75-5.07-10.75-12.44S160.8,8.66,167.14,8.66ZM169,26.9c2.41,0,4.68-1.75,4.68-5.85,0-2.86-1.53-5.67-4.68-5.67-2.5,0-4.68,2-4.68,5.67S166.22,26.9,169,26.9Z"/><path class="cls-2" d="M187.07,9.21h8V23.13c0,2.21.88,3.13,2.55,3.13,3.43,0,5.05-3,5.05-6.55V9.21h8V32.94H203V30.87a12.44,12.44,0,0,1,.09-1.47H203a8.28,8.28,0,0,1-7.46,4.1c-4.73,0-8.48-2.21-8.48-8.89V9.21Z"/><path class="cls-2" d="M228.36,8.66c7.55,0,13.57,5,13.57,12.49s-6,12.35-13.53,12.35-13.53-4.93-13.53-12.35S220.9,8.66,228.36,8.66Zm0,18.2a5.38,5.38,0,0,0,5.42-5.71c0-3.59-2.5-5.85-5.42-5.85S223,17.55,223,21.15A5.38,5.38,0,0,0,228.41,26.86Z"/></svg>